<?xml version="1.0" encoding="UTF-8" standalone="no"?>
<!-- Created with Inkscape (http://www.inkscape.org/) -->
<svg
   xmlns:svg="http://www.w3.org/2000/svg"
   xmlns="http://www.w3.org/2000/svg"
   version="1.0"
   width="921.25983"
   height="141.73228"
   id="svg14064">
  <defs
     id="defs14066" />
  <g
     id="layer1">
    <g
       transform="matrix(3.543307e-5,0,0,3.543307e-5,3.330078e-6,1.794383e-4)"
       style="fill-rule:evenodd"
       id="Ebene_x0020_1">
  
  <path
   d="M 2868700,3502880 L 2868700,3389130 L 2792190,3389130 C 2590210,3389130 2559620,3367700 2559620,3214700 L 2559620,442030 L 1457890,442030 L 1457890,555250 L 1592540,555250 C 1794520,555250 1825130,573620 1825130,711330 L 1825130,2238440 C 1693540,2143580 1494610,2082360 1292630,2082360 C 894780,2082360 500000,2360860 500000,2816850 C 500000,3269780 900890,3551840 1292630,3551840 C 1543570,3551840 1724130,3487060 1858800,3370760 L 1858800,3502880 L 2868700,3502880 L 2868700,3502880 z M 1831250,2920910 C 1831250,3168800 1809820,3245290 1742500,3303450 C 1687400,3349350 1610910,3379960 1531340,3379960 C 1280390,3379960 1274260,3184090 1274260,2816850 C 1274260,2422070 1292630,2253740 1531340,2253740 C 1610910,2253740 1687400,2284340 1742500,2330250 C 1809820,2388400 1831250,2464920 1831250,2712800 L 1831250,2920910 z M 4824260,2844400 C 4815080,2354740 4481500,2082360 3887790,2082360 C 3272650,2082360 2887060,2366970 2887060,2822960 C 2887060,3263660 3294090,3557960 3903100,3557960 C 4291760,3557960 4613100,3410550 4812020,3150420 L 4735510,3073910 C 4545760,3297330 4297870,3425860 4043870,3425860 C 3652150,3425860 3618490,3205500 3618490,2914770 L 3618490,2844400 L 4824260,2844400 z M 4126500,2721980 L 3618490,2721980 L 3618490,2682200 C 3618490,2492450 3627660,2379210 3649080,2327190 C 3679680,2244560 3759250,2198660 3872490,2198660 C 3985730,2198660 4065280,2244560 4095890,2327190 C 4117320,2379210 4126500,2492450 4126500,2682200 L 4126500,2721980 z M 6164680,3502880 L 7407180,763350 C 7468400,625640 7499000,585850 7563260,567500 C 7603050,558300 7633660,555250 7743820,555250 L 7774420,555250 L 7774420,442030 L 6819600,442030 L 6819600,555250 L 6844090,555250 C 7119510,555250 7192960,588910 7192960,702150 C 7192960,793960 7116450,962270 7070550,1066330 L 6415630,2544470 L 5711750,965330 C 5641370,806190 5616880,738880 5616880,683780 C 5616880,619520 5656670,576680 5730120,564440 C 5772970,558300 5794380,555250 5916790,555250 L 5974950,555250 L 5974950,442030 L 4315720,442030 L 4315720,555250 L 4419780,555250 C 4566670,555250 4618710,570560 4658500,616460 C 4682970,644010 4710520,699090 4741120,763350 L 6002480,3502880 L 6164680,3502880 L 6164680,3502880 z M 8940430,2810730 C 8940430,2366970 8533400,2076240 7909090,2076240 C 7278670,2076240 6877760,2363910 6877760,2816850 C 6877760,3269780 7278670,3557960 7909090,3557960 C 8542580,3557960 8940430,3269780 8940430,2810730 z M 8178390,2896420 C 8178390,3098400 8169220,3248370 8147800,3303450 C 8114140,3389130 8028450,3441160 7909090,3441160 C 7789740,3441160 7704050,3389130 7670380,3303450 C 7648970,3248370 7639770,3098400 7639770,2896420 L 7639770,2706670 C 7639770,2504700 7648970,2385350 7670380,2330250 C 7704050,2244560 7789740,2192540 7909090,2192540 C 8028450,2192540 8114140,2244560 8147800,2330250 C 8169220,2385350 8178390,2504700 8178390,2706670 L 8178390,2896420 z M 8980220,3502880 L 10335950,3502880 L 10335950,3389130 L 10259440,3389130 C 10057460,3389130 10023790,3370760 10023790,3229990 L 10023790,442030 L 8922080,442030 L 8922080,555250 L 9056730,555250 C 9258710,555250 9289320,573620 9289320,711330 L 9289320,3233050 C 9289320,3370760 9258710,3389130 9056730,3389130 L 8980220,3389130 L 8980220,3502880 z M 12992330,3505930 L 12992330,3392190 C 12992330,3392190 12970910,3395250 12946420,3392190 C 12912760,3392190 12885230,3389130 12851560,3379960 C 12820950,3370760 12787280,3340170 12738320,3278960 L 12068110,2437370 C 12227250,2321070 12450650,2262930 12799540,2253740 L 12799540,2140520 L 11728410,2140520 L 11728410,2253740 L 11832460,2253740 C 11939580,2253740 11954870,2256810 11979360,2265990 C 12000770,2275170 12019150,2293520 12019150,2321070 C 12019150,2354740 12000770,2382290 11948750,2428190 C 11918150,2455720 11853890,2501620 11814100,2532230 L 11486640,2770940 L 11486640,442030 L 10384910,442030 L 10384910,555250 L 10519580,555250 C 10721550,555250 10752160,573620 10752160,711330 L 10752160,3217760 C 10752160,3370760 10721550,3392190 10519580,3392190 L 10443070,3392190 L 10443070,3505930 L 11762080,3505930 L 11762080,3392190 L 11722300,3392190 C 11520310,3392190 11486640,3367700 11486640,3214700 L 11486640,2835220 L 12000770,3505930 L 12992330,3505930 z M 14748970,3040240 C 14748970,2838280 14644930,2725040 14348060,2611800 L 14164450,2541410 C 13983900,2471030 13941050,2434310 13941050,2363910 C 13941050,2290460 14005310,2247620 14124670,2247620 C 14256260,2247620 14403160,2296580 14479670,2363910 C 14531690,2409820 14546990,2449600 14546990,2556720 L 14546990,2590390 L 14647990,2590390 L 14647990,2137460 L 14546990,2137460 C 14537810,2177240 14522520,2195600 14479670,2195600 C 14455180,2195600 14439890,2192540 14378670,2174180 C 14195060,2119090 14038980,2091550 13861480,2091550 C 13399360,2091550 13114760,2275170 13114760,2575080 C 13114760,2783180 13249410,2914770 13586040,3067790 L 13693160,3116760 C 13815580,3171850 13861480,3214700 13861480,3278960 C 13861480,3349350 13797210,3392190 13674790,3392190 C 13512590,3392190 13341220,3315680 13255530,3217760 C 13209620,3165740 13191250,3101460 13191250,2991280 L 13191250,2979050 L 13087210,2979050 L 13087210,3502880 L 13191250,3502880 C 13194330,3438100 13206570,3410550 13246350,3410550 C 13264700,3410550 13276960,3416680 13304490,3425860 C 13549320,3508990 13742130,3545720 13971640,3545720 C 14455180,3545720 14748970,3352410 14748970,3040240 z M 17307420,3505930 L 17307420,3392190 C 17307420,3392190 17286010,3395250 17261520,3392190 C 17227850,3392190 17200320,3389130 17166660,3379960 C 17136050,3370760 17102380,3340170 17053420,3278960 L 16383210,2437370 C 16542350,2321070 16765740,2262930 17114630,2253740 L 17114630,2140520 L 16043510,2140520 L 16043510,2253740 L 16147550,2253740 C 16254670,2253740 16269970,2256810 16294460,2265990 C 16315870,2275170 16334240,2293520 16334240,2321070 C 16334240,2354740 16315870,2382290 16263850,2428190 C 16233240,2455720 16168990,2501620 16129200,2532230 L 15801740,2770940 L 15801740,442030 L 14700010,442030 L 14700010,555250 L 14834680,555250 C 15036650,555250 15067250,573620 15067250,711330 L 15067250,3217760 C 15067250,3370760 15036650,3392190 14834680,3392190 L 14758170,3392190 L 14758170,3505930 L 16077180,3505930 L 16077180,3392190 L 16037390,3392190 C 15835410,3392190 15801740,3367700 15801740,3214700 L 15801740,2835220 L 16315870,3505930 L 17307420,3505930 z M 18433640,3229990 L 18433640,2951500 C 18433640,2822960 18442820,2725040 18458120,2657710 C 18473430,2596510 18504040,2523060 18537690,2471030 C 18571350,2419000 18601960,2391460 18626450,2391460 C 18632570,2391460 18644810,2397580 18644810,2406760 C 18644810,2412880 18647870,2415940 18635630,2440430 C 18611140,2486330 18605020,2529170 18605020,2578140 C 18605020,2783180 18764160,2930080 18990620,2930080 C 19226270,2930080 19382350,2764830 19382350,2516940 C 19382350,2256810 19220150,2082360 18947770,2082360 C 18702950,2082360 18513220,2238440 18409150,2498570 L 18409150,2143580 L 17383940,2143580 L 17383940,2256810 L 17475760,2256810 C 17677740,2256810 17708330,2275170 17708330,2412880 L 17708330,3233050 C 17708330,3370760 17677740,3389130 17475760,3389130 L 17417600,3389130 L 17417600,3502880 L 18758040,3502880 L 18758040,3389130 L 18669300,3389130 C 18467310,3389130 18433640,3367700 18433640,3229990 z M 21515420,3502880 L 21515420,3389130 L 21454200,3389130 C 21316490,3389130 21292000,3346290 21292000,3214700 L 21292000,2755650 C 21292000,2578140 21288950,2526110 21270590,2461840 C 21255300,2406760 21227750,2351680 21187960,2302720 C 21071670,2155810 20857440,2082360 20560590,2082360 C 20386160,2082360 20190290,2119090 19982190,2177240 C 19957700,2183360 19884250,2207830 19859770,2207830 C 19823050,2207830 19810810,2192540 19807750,2140520 L 19715930,2140520 L 19715930,2593450 L 19816930,2593450 L 19816930,2559780 C 19816930,2449600 19838340,2391460 19893440,2348620 C 19969940,2287400 20122960,2244560 20269860,2244560 C 20413690,2244560 20508560,2287400 20539160,2366970 C 20554480,2406760 20557540,2446540 20557540,2541410 L 20557540,2642410 C 20444300,2633230 20364730,2630170 20254550,2630170 C 19774090,2630170 19443570,2755650 19443570,3092280 C 19443570,3395250 19703690,3542660 20015860,3542660 C 20220900,3542660 20422870,3490120 20582010,3373840 L 20582010,3502880 L 21515420,3502880 z M 20557540,3012710 C 20557540,3046380 20557540,3095340 20554480,3147360 C 20551420,3211640 20542220,3245290 20517750,3275900 C 20484080,3315680 20429000,3340170 20367790,3340170 C 20248430,3340170 20205590,3269780 20205590,3083110 L 20205590,3018830 C 20205590,2826020 20275980,2752590 20465710,2752590 C 20505500,2752590 20502440,2752590 20557540,2755650 L 20557540,3012710 z M 24061630,3502880 L 24061630,3389130 L 24012670,3389130 C 23810690,3389130 23780080,3370760 23780080,3223880 L 23780080,2700550 C 23780080,2581190 23777020,2553660 23770900,2495510 C 23758650,2409820 23728060,2333310 23672960,2272110 C 23571980,2161930 23412840,2100730 23210850,2100730 C 22969080,2100730 22760980,2180300 22595720,2339440 L 22595720,2143580 L 21582750,2143580 L 21582750,2256810 L 21674560,2256810 C 21876550,2256810 21907150,2275170 21907150,2422070 L 21907150,3223880 C 21907150,3370760 21876550,3389130 21674560,3389130 L 21616420,3389130 L 21616420,3502880 L 22797700,3502880 L 22797700,3401370 L 22767100,3401370 C 22669170,3401370 22635510,3376900 22626330,3315680 C 22623270,3285070 22620210,3226930 22620210,3165740 L 22620210,2691370 C 22620210,2516940 22629390,2474090 22675290,2415940 C 22718130,2363910 22791590,2327190 22871160,2327190 C 22947670,2327190 22999690,2351680 23021120,2403700 C 23036420,2437370 23045590,2605680 23045590,2770940 L 23045590,3165740 C 23045590,3297330 23039470,3349350 23018040,3370760 C 22996630,3392190 22959900,3401370 22898710,3401370 L 22880330,3401370 L 22880330,3502880 L 24061630,3502880 z M 25500000,2988220 L 25500000,2942320 L 25395940,2942320 L 25395940,2975990 C 25395940,3147360 25386760,3321800 25181720,3321800 C 25105210,3321800 25059300,3285070 25040930,3226930 C 25019520,3162660 25025640,3061680 25025640,2972930 L 25025640,2272110 L 25493860,2272110 L 25493860,2143580 L 25025640,2143580 L 25025640,1608010 L 24985850,1577410 L 24042760,2171110 L 24042760,2272110 L 24294210,2272110 L 24294210,2878060 C 24294210,3021890 24297270,3070850 24303400,3132070 C 24312580,3242230 24346250,3337110 24407450,3404430 C 24502310,3512050 24655340,3557960 24878750,3557960 C 25175600,3557960 25368390,3471760 25454080,3303450 C 25490810,3233050 25500000,3156540 25500000,2988220 z "
   id="path14059" />

 </g>
  </g>
</svg>
